<svg xmlns="http://www.w3.org/2000/svg" viewBox="0 0 512 512" role="img" aria-label="Grupo Vieira">
  <defs>
    <linearGradient id="bg" x1="0" y1="0" x2="1" y2="1">
      <stop offset="0%" stop-color="#ffffff"/>
      <stop offset="100%" stop-color="#eef3fb"/>
    </linearGradient>
    <linearGradient id="blueGlow" x1="0" y1="0" x2="0.9" y2="1">
      <stop offset="0%" stop-color="#3d98ff"/>
      <stop offset="100%" stop-color="#1376eb"/>
    </linearGradient>
  </defs>
  <circle cx="256" cy="256" r="248" fill="#1376eb"/>
  <circle cx="256" cy="256" r="216" fill="url(#bg)"/>
  <path d="M107 193c0-84 61-140 149-140 24 0 47 4 68 12 9 3 18 7 25 13l-40 52c-14-7-31-10-47-10-43 0-72 24-72 60 0 29 17 47 49 61l45 20c56 25 86 64 86 124 0 90-66 145-165 145-43 0-82-10-112-30l37-56c21 13 49 21 75 21 49 0 81-24 81-64 0-32-19-53-59-70l-44-19c-55-24-86-61-86-119z" fill="#333333"/>
  <path d="M277 306c-19-9-27-18-27-32 0-20 16-34 40-34 24 0 44 7 67 25l18-56c-27-22-62-34-101-34-72 0-118 44-118 108 0 54 29 89 87 115l48 21c20 9 30 19 30 34 0 24-18 40-45 40-23 0-50-8-73-23l-34 52c31 20 69 31 113 31 86 0 144-50 144-125 0-58-29-97-91-122l-58-26z" fill="url(#blueGlow)"/>
  <path d="M132 140c33-41 83-64 138-64 29 0 56 5 80 17l-28 37c-18-7-36-11-55-11-44 0-80 17-108 49l-27-28z" fill="#ffffff" opacity=".58"/>
  <path d="M103 350c0 0 43 79 150 79 32 0 59-6 80-18l26 35c-28 14-61 24-106 24-77 0-132-26-165-84l15-36z" fill="#ffffff" opacity=".35"/>
</svg>
